<?xml version="1.0" standalone="no"?>
<!DOCTYPE svg PUBLIC "-//W3C//DTD SVG 20010904//EN"
 "http://www.w3.org/TR/2001/REC-SVG-20010904/DTD/svg10.dtd">
<svg version="1.0" xmlns="http://www.w3.org/2000/svg"
 width="700.000000pt" height="700.000000pt" viewBox="0 0 700.000000 700.000000"
 preserveAspectRatio="xMidYMid meet">
<metadata>
Created by potrace 1.11, written by Peter Selinger 2001-2013
</metadata>
<g transform="translate(0.000000,700.000000) scale(0.100000,-0.100000)"
fill="#000000" stroke="none">
<path d="M3675 5403 c-811 -67 -1442 -324 -1914 -778 -339 -328 -560 -710
-695 -1202 -81 -298 -126 -647 -126 -987 l0 -139 128 6 c372 17 560 124 899
511 324 369 513 513 805 609 89 30 272 71 290 65 6 -2 -6 -15 -28 -28 -120
-75 -337 -272 -440 -401 -164 -206 -283 -466 -317 -691 -6 -43 -9 -79 -6 -82
10 -10 286 -36 449 -42 597 -23 1097 126 1486 442 261 212 474 490 775 1010
379 657 485 812 701 1020 108 104 189 166 302 232 l79 45 -99 39 c-153 59
-472 162 -644 206 -467 122 -871 173 -1335 170 -148 -1 -288 -3 -310 -5z"/>
<path d="M2242 2873 c-219 -218 -337 -367 -562 -703 -190 -285 -282 -376 -485
-477 -44 -23 -116 -53 -160 -68 -44 -16 -84 -32 -90 -37 -17 -17 730 -3 795
14 85 22 148 58 197 112 83 93 113 176 168 468 72 380 147 605 255 763 34 50
52 85 45 85 -3 0 -77 -71 -163 -157z"/>
</g>
</svg>
