<svg data-v-5f19e91b="" xmlns="http://www.w3.org/2000/svg" width="369" height="52" viewBox="0 0 369 52"><!----> <!----> <!----> <g data-v-5f19e91b="" id="5ced9574-db45-d109-d6bc-21e57049a5d9" fill="white" transform="matrix(5.958292136874524,0,0,5.958292136874524,82.8451299591695,-24.33929954267633)"><path d="M2.61 13.33L1.57 13.33L1.57 13.33Q1.09 13.33 1.09 12.82L1.09 12.82L1.09 4.04L1.09 4.04Q1.09 3.53 1.57 3.53L1.57 3.53L2.58 3.53L2.58 3.53Q3.17 3.53 3.47 4.01L3.47 4.01L6.96 9.60L7.01 9.60L7.01 9.60Q6.97 9.19 6.97 8.78L6.97 8.78L6.97 4.04L6.97 4.04Q6.97 3.53 7.45 3.53L7.45 3.53L8.49 3.53L8.49 3.53Q8.97 3.53 8.97 4.04L8.97 4.04L8.97 12.82L8.97 12.82Q8.97 13.33 8.49 13.33L8.49 13.33L7.55 13.33L7.55 13.33Q6.96 13.33 6.66 12.85L6.66 12.85L3.10 7.15L3.06 7.15L3.06 7.15Q3.09 7.56 3.09 7.97L3.09 7.97L3.09 12.82L3.09 12.82Q3.09 13.33 2.61 13.33L2.61 13.33ZM10.61 9.74L10.61 9.74L10.61 9.74Q10.61 8.00 11.51 7.01L11.51 7.01L11.51 7.01Q12.41 6.02 14.18 6.02L14.18 6.02L14.18 6.02Q15.96 6.02 16.86 7.01L16.86 7.01L16.86 7.01Q17.76 8.00 17.76 9.74L17.76 9.74L17.76 9.74Q17.76 11.48 16.86 12.48L16.86 12.48L16.86 12.48Q15.96 13.47 14.18 13.47L14.18 13.47L14.18 13.47Q12.41 13.47 11.51 12.48L11.51 12.48L11.51 12.48Q10.61 11.48 10.61 9.74ZM12.63 9.74L12.63 9.74L12.63 9.74Q12.63 11.04 13.03 11.58L13.03 11.58L13.03 11.58Q13.43 12.13 14.18 12.13L14.18 12.13L14.18 12.13Q14.94 12.13 15.34 11.58L15.34 11.58L15.34 11.58Q15.74 11.04 15.74 9.74L15.74 9.74L15.74 9.74Q15.74 8.44 15.34 7.90L15.34 7.90L15.34 7.90Q14.94 7.36 14.18 7.36L14.18 7.36L14.18 7.36Q13.43 7.36 13.03 7.90L13.03 7.90L13.03 7.90Q12.63 8.44 12.63 9.74ZM24.13 13.33L19.07 13.33L19.07 13.33Q18.66 13.33 18.66 12.99L18.66 12.99L18.66 12.47L18.66 12.47Q18.66 12.11 18.94 11.73L18.94 11.73L22.00 7.52L22.00 7.49L22.00 7.49Q21.73 7.52 21.46 7.52L21.46 7.52L19.24 7.52L19.24 7.52Q18.83 7.52 18.83 7.18L18.83 7.18L18.83 6.96L18.83 6.96Q18.83 6.15 19.24 6.15L19.24 6.15L23.97 6.15L23.97 6.15Q24.38 6.15 24.38 6.49L24.38 6.49L24.38 6.97L24.38 6.97Q24.38 7.31 24.08 7.71L24.08 7.71L21 11.96L21 11.99L21 11.99Q21.36 11.96 21.55 11.96L21.55 11.96L24.13 11.96L24.13 11.96Q24.54 11.96 24.54 12.30L24.54 12.30L24.54 12.99L24.54 12.99Q24.54 13.33 24.13 13.33L24.13 13.33ZM25.44 9.74L25.44 9.74L25.44 9.74Q25.44 8.00 26.34 7.01L26.34 7.01L26.34 7.01Q27.24 6.02 29.02 6.02L29.02 6.02L29.02 6.02Q30.80 6.02 31.69 7.01L31.69 7.01L31.69 7.01Q32.59 8.00 32.59 9.74L32.59 9.74L32.59 9.74Q32.59 11.48 31.69 12.48L31.69 12.48L31.69 12.48Q30.80 13.47 29.02 13.47L29.02 13.47L29.02 13.47Q27.24 13.47 26.34 12.48L26.34 12.48L26.34 12.48Q25.44 11.48 25.44 9.74ZM27.47 9.74L27.47 9.74L27.47 9.74Q27.47 11.04 27.87 11.58L27.87 11.58L27.87 11.58Q28.27 12.13 29.02 12.13L29.02 12.13L29.02 12.13Q29.77 12.13 30.17 11.58L30.17 11.58L30.17 11.58Q30.57 11.04 30.57 9.74L30.57 9.74L30.57 9.74Q30.57 8.44 30.17 7.90L30.17 7.90L30.17 7.90Q29.77 7.36 29.02 7.36L29.02 7.36L29.02 7.36Q28.27 7.36 27.87 7.90L27.87 7.90L27.87 7.90Q27.47 8.44 27.47 9.74ZM35.57 13.33L34.48 13.33L34.48 13.33Q34.07 13.33 34.07 12.92L34.07 12.92L34.07 6.56L34.07 6.56Q34.07 6.15 34.48 6.15L34.48 6.15L35.56 6.15L35.56 6.15Q35.97 6.15 35.97 6.56L35.97 6.56L35.97 6.96L36.00 6.96L36.00 6.96Q36.20 6.52 36.67 6.27L36.67 6.27L36.67 6.27Q37.14 6.02 37.55 6.02L37.55 6.02L37.55 6.02Q38.37 6.02 38.82 6.40L38.82 6.40L38.82 6.40Q39.28 6.78 39.45 7.25L39.45 7.25L39.48 7.25L39.48 7.25Q40.07 6.48 40.55 6.25L40.55 6.25L40.55 6.25Q41.04 6.02 41.79 6.02L41.79 6.02L41.79 6.02Q42.80 6.02 43.49 6.69L43.49 6.69L43.49 6.69Q44.19 7.36 44.19 9.13L44.19 9.13L44.19 12.92L44.19 12.92Q44.19 13.33 43.78 13.33L43.78 13.33L42.68 13.33L42.68 13.33Q42.27 13.33 42.27 12.92L42.27 12.92L42.27 9.63L42.27 9.63Q42.27 8.13 42.07 7.75L42.07 7.75L42.07 7.75Q41.87 7.36 41.36 7.36L41.36 7.36L41.36 7.36Q40.88 7.36 40.48 7.92L40.48 7.92L40.48 7.92Q40.09 8.48 40.09 10.23L40.09 10.23L40.09 12.92L40.09 12.92Q40.09 13.33 39.68 13.33L39.68 13.33L38.58 13.33L38.58 13.33Q38.17 13.33 38.17 12.92L38.17 12.92L38.17 9.63L38.17 9.63Q38.17 8.13 37.97 7.75L37.97 7.75L37.97 7.75Q37.77 7.36 37.26 7.36L37.26 7.36L37.26 7.36Q36.78 7.36 36.38 7.91L36.38 7.91L36.38 7.91Q35.98 8.47 35.98 10.23L35.98 10.23L35.98 12.92L35.98 12.92Q35.98 13.33 35.57 13.33L35.57 13.33ZM47.54 13.33L46.44 13.33L46.44 13.33Q46.03 13.33 46.03 12.92L46.03 12.92L46.03 6.56L46.03 6.56Q46.03 6.15 46.44 6.15L46.44 6.15L47.54 6.15L47.54 6.15Q47.95 6.15 47.95 6.56L47.95 6.56L47.95 12.92L47.95 12.92Q47.95 13.33 47.54 13.33L47.54 13.33ZM47.54 5.10L46.44 5.10L46.44 5.10Q46.03 5.10 46.03 4.69L46.03 4.69L46.03 3.81L46.03 3.81Q46.03 3.40 46.44 3.40L46.44 3.40L47.54 3.40L47.54 3.40Q47.95 3.40 47.95 3.81L47.95 3.81L47.95 4.69L47.95 4.69Q47.95 5.10 47.54 5.10L47.54 5.10Z"></path></g> <!----> <g data-v-5f19e91b="" id="ec0e0c0d-9ebb-216b-dcf3-50174fca0785" transform="matrix(0.7589304606119792,0,0,0.7589304606119792,-2.6291398808044804,-11.098362031685731)" stroke="none" fill="white"><g><path d="M4.343,71.309c19.596,1.133,16.533-18.501,38.494-21.31c-14.622,9.194-14.812,21.707-14.812,21.707   c49.286,6.912,44.178-36.774,67.657-48.36C54.328,6.586,3,15.994,4.343,71.309z"></path><path fill="#000000" d="M4.317,84.152h11.1c13.147,0,6.216-13.132,15.085-25.742C14.281,73.058,18.595,79.768,4.317,84.152z"></path></g></g></svg>